<svg id="Group_14" data-name="Group 14" xmlns="http://www.w3.org/2000/svg" width="30" height="30" viewBox="0 0 30 30">
  <path id="Path_3" data-name="Path 3" d="M14,11.25A1.75,1.75,0,0,1,15.75,9.5h1.5a.75.75,0,0,1,0,1.5h-1.5a.25.25,0,0,0-.25.25v1.5a.25.25,0,0,0,.25.25h.5A1.75,1.75,0,0,1,18,14.75v1.5A1.75,1.75,0,0,1,16.25,18h-1.5a.75.75,0,0,1,0-1.5h1.5a.25.25,0,0,0,.25-.25v-1.5a.25.25,0,0,0-.25-.25h-.5A1.75,1.75,0,0,1,14,12.75Z" transform="translate(6.429 5.211)" fill="#91b3bc"/>
  <path id="Path_4" data-name="Path 4" d="M12.75,10.25a.75.75,0,0,0-1.5,0v6a.25.25,0,0,1-.25.25H9.75a.75.75,0,0,0,0,1.5H11a1.75,1.75,0,0,0,1.75-1.75Z" transform="translate(7.053 5.211)" fill="#91b3bc"/>
  <path id="Path_5" data-name="Path 5" d="M3,8.417V27.583A5.417,5.417,0,0,0,8.417,33H27.583A5.417,5.417,0,0,0,33,27.583V8.417A5.417,5.417,0,0,0,27.583,3H8.417A5.417,5.417,0,0,0,3,8.417ZM8.417,5.5H27.583A2.917,2.917,0,0,1,30.5,8.417V27.583A2.917,2.917,0,0,1,27.583,30.5H8.417A2.917,2.917,0,0,1,5.5,27.583V8.417A2.917,2.917,0,0,1,8.417,5.5Z" transform="translate(-3 -3)" fill="#91b3bc"/>
</svg>
