<svg xmlns="http://www.w3.org/2000/svg" width="27.76" height="27.758" viewBox="0 0 27.76 27.758">
  <path id="next-js" d="M20.6,26.07c-.1.055-.095.072,0,.022a.269.269,0,0,0,.082-.053c0-.018,0-.018-.087.031Zm.208-.113c-.049.041-.049.041.01.014a.216.216,0,0,0,.059-.041C20.878,25.907,20.864,25.912,20.81,25.957Zm.135-.082c-.049.041-.049.041.01.014a.214.214,0,0,0,.059-.042C21.014,25.826,21,25.831,20.945,25.876Zm.137-.081c-.049.041-.049.041.008.013a.184.184,0,0,0,.059-.041c0-.022-.014-.017-.067.028Zm.185-.122c-.095.063-.128.1-.041.059.058-.036.157-.114.14-.114a.724.724,0,0,0-.1.055ZM12.971.051c-.063,0-.253.022-.42.036A13.912,13.912,0,0,0,2.576,5.839,13.731,13.731,0,0,0,.126,11.9,10.586,10.586,0,0,0,0,13.926a10.543,10.543,0,0,0,.126,2.019A13.937,13.937,0,0,0,9.619,27.159a15.07,15.07,0,0,0,2.933.611,26.068,26.068,0,0,0,2.655,0,14.053,14.053,0,0,0,5-1.464c.239-.121.285-.154.252-.18-.763-1.007-1.513-2.015-2.263-3.032l-2.218-3L13.2,15.981q-1.39-2.066-2.8-4.115c-.01,0-.022,1.829-.027,4.061a32.257,32.257,0,0,1-.059,4.157.5.5,0,0,1-.239.249c-.086.041-.163.049-.573.049H9.033l-.122-.076a.516.516,0,0,1-.18-.2l-.059-.122,0-5.44.01-5.44L8.771,9a.654.654,0,0,1,.2-.162c.114-.055.159-.063.628-.063.551,0,.642.022.787.18,1.124,1.676,2.245,3.356,3.348,5.042,1.8,2.734,4.265,6.465,5.475,8.3l2.2,3.33.108-.072a14.18,14.18,0,0,0,2.85-2.5,13.823,13.823,0,0,0,3.268-7.093,10.591,10.591,0,0,0,.126-2.024,10.538,10.538,0,0,0-.126-2.019A13.94,13.94,0,0,0,18.141.693a14.732,14.732,0,0,0-2.887-.6C14.992.062,13.2.03,12.972.053Zm5.679,8.395a.54.54,0,0,1,.275.316c.023.073.028,1.581.023,4.979l-.01,4.879L18.082,17.3l-.863-1.319V12.44c0-2.3.01-3.584.022-3.647a.58.58,0,0,1,.272-.343c.108-.055.149-.059.579-.059.4,0,.469,0,.56.055Z" transform="translate(0 -0.045)" fill="#91b3bc"/>
</svg>
