<svg xmlns="http://www.w3.org/2000/svg" width="30" height="28" viewBox="0 0 30 28">
  <path id="Path_6" data-name="Path 6" d="M15,12.518a2.808,2.808,0,1,0,2.674,2.8A2.742,2.742,0,0,0,15,12.518ZM7.51,20.9l-.59-.157C2.522,19.579,0,17.6,0,15.318s2.522-4.262,6.92-5.427l.59-.156.166.614a31.8,31.8,0,0,0,1.7,4.692l.126.279L9.38,15.6a31.5,31.5,0,0,0-1.7,4.692L7.51,20.9Zm-.864-9.579c-3.342.985-5.394,2.491-5.394,3.994S3.3,18.326,6.646,19.312a33.7,33.7,0,0,1,1.478-3.994,33.436,33.436,0,0,1-1.477-3.994ZM22.49,20.9l-.166-.615a31.567,31.567,0,0,0-1.7-4.69l-.126-.279.126-.279a31.653,31.653,0,0,0,1.7-4.692l.166-.614.591.156C27.478,11.055,30,13.034,30,15.318s-2.522,4.262-6.919,5.427Zm-.614-5.585a33.4,33.4,0,0,1,1.477,3.994c3.344-.986,5.394-2.493,5.394-3.994S26.7,12.31,23.354,11.324a33.485,33.485,0,0,1-1.477,3.994Zm-15.239-4L6.471,10.7C5.235,6.134,5.61,2.858,7.5,1.715c1.854-1.122,4.83.2,7.949,3.561l.425.458-.425.458a30.638,30.638,0,0,0-3.028,3.89l-.169.253-.294.026a28.3,28.3,0,0,0-4.731.8l-.59.156Zm2.37-8.694a1.68,1.68,0,0,0-.881.227C6.884,3.6,6.664,6.214,7.52,9.738a30.044,30.044,0,0,1,4.041-.657,32.35,32.35,0,0,1,2.565-3.336c-1.95-1.992-3.8-3.122-5.119-3.122Zm11.986,26.7h0c-1.781,0-4.069-1.407-6.442-3.964l-.425-.458.425-.458a30.611,30.611,0,0,0,3.026-3.892l.169-.253.293-.026a28.269,28.269,0,0,0,4.734-.8l.59-.156.168.614c1.234,4.568.86,7.845-1.03,8.987a2.867,2.867,0,0,1-1.506.4Zm-5.12-4.433c1.95,1.992,3.8,3.122,5.119,3.122h0a1.675,1.675,0,0,0,.88-.227c1.242-.751,1.464-3.365.606-6.889a29.922,29.922,0,0,1-4.042.657A32.126,32.126,0,0,1,15.874,24.89Zm7.489-13.573-.59-.156a28.088,28.088,0,0,0-4.734-.8l-.293-.026-.169-.253a30.46,30.46,0,0,0-3.026-3.89l-.425-.458.425-.458C17.669,1.919,20.644.594,22.5,1.715c1.89,1.143,2.265,4.419,1.03,8.989l-.167.614ZM18.438,9.081a29.825,29.825,0,0,1,4.042.657c.858-3.525.636-6.137-.606-6.888s-3.556.4-6,2.9a32.354,32.354,0,0,1,2.564,3.336ZM9.007,29.323a2.867,2.867,0,0,1-1.507-.4C5.61,27.777,5.235,24.5,6.471,19.932l.165-.614.59.156a28.238,28.238,0,0,0,4.731.8l.294.026.167.253a30.7,30.7,0,0,0,3.028,3.892l.425.458-.425.458c-2.372,2.557-4.66,3.964-6.439,3.964ZM7.52,20.9c-.857,3.525-.636,6.138.606,6.889s3.554-.4,6-2.9a32.547,32.547,0,0,1-2.565-3.337A29.87,29.87,0,0,1,7.52,20.9Zm7.48.823c-1.029,0-2.086-.047-3.145-.139l-.294-.026-.169-.253q-.9-1.354-1.687-2.782T8.247,15.6l-.125-.279.125-.279q.671-1.492,1.458-2.921c.517-.939,1.086-1.875,1.687-2.782l.169-.253.294-.026a35.5,35.5,0,0,1,6.291,0l.292.026.167.253a39.861,39.861,0,0,1,3.146,5.7l.126.279-.126.279a39.323,39.323,0,0,1-3.146,5.7l-.168.253-.293.026c-1.059.092-2.118.139-3.146.139ZM12.254,20.3a34.615,34.615,0,0,0,5.494,0,38.535,38.535,0,0,0,2.745-4.98,37.975,37.975,0,0,0-2.746-4.98,34.6,34.6,0,0,0-5.492,0,37.831,37.831,0,0,0-2.746,4.98,38.678,38.678,0,0,0,2.746,4.98Z" transform="translate(0 -1.324)" fill="#91b3bc"/>
</svg>
