<svg xmlns="http://www.w3.org/2000/svg" width="33.979" height="20.428" viewBox="0 0 33.979 20.428">
  <path id="Path_14" data-name="Path 14" d="M30.032,11.972A7.169,7.169,0,0,1,26.787,9.7a9.8,9.8,0,0,0-7.8-3.687,8.019,8.019,0,0,0-8.495,6.8,5.488,5.488,0,0,1,5.946-2.531,7.339,7.339,0,0,1,3.245,2.294,9.8,9.8,0,0,0,7.8,3.636,8.019,8.019,0,0,0,8.495-6.8A5.437,5.437,0,0,1,30.032,11.972ZM7.946,20.432a7.169,7.169,0,0,1,3.245,2.277,9.8,9.8,0,0,0,7.8,3.687,8.019,8.019,0,0,0,8.495-6.8,5.488,5.488,0,0,1-5.946,2.531,7.339,7.339,0,0,1-3.245-2.294,9.854,9.854,0,0,0-7.8-3.636A8.019,8.019,0,0,0,2,23a5.437,5.437,0,0,1,5.946-2.565Z" transform="translate(-2 -5.988)" fill="#91b3bc"/>
</svg>
