<svg id="Group_17" data-name="Group 17" xmlns="http://www.w3.org/2000/svg" width="30" height="30" viewBox="0 0 30 30">
  <path id="Path_3" data-name="Path 3" d="M14,11.25A1.75,1.75,0,0,1,15.75,9.5h1.5a.75.75,0,0,1,0,1.5h-1.5a.25.25,0,0,0-.25.25v1.5a.25.25,0,0,0,.25.25h.5A1.75,1.75,0,0,1,18,14.75v1.5A1.75,1.75,0,0,1,16.25,18h-1.5a.75.75,0,0,1,0-1.5h1.5a.25.25,0,0,0,.25-.25v-1.5a.25.25,0,0,0-.25-.25h-.5A1.75,1.75,0,0,1,14,12.75Z" transform="translate(6.429 5.211)" fill="#91b3bc"/>
  <path id="Path_5" data-name="Path 5" d="M3,8.417V27.583A5.417,5.417,0,0,0,8.417,33H27.583A5.417,5.417,0,0,0,33,27.583V8.417A5.417,5.417,0,0,0,27.583,3H8.417A5.417,5.417,0,0,0,3,8.417ZM8.417,5.5H27.583A2.917,2.917,0,0,1,30.5,8.417V27.583A2.917,2.917,0,0,1,27.583,30.5H8.417A2.917,2.917,0,0,1,5.5,27.583V8.417A2.917,2.917,0,0,1,8.417,5.5Z" transform="translate(-3 -3)" fill="#91b3bc"/>
  <g id="Rectangle_4" data-name="Rectangle 4" transform="translate(16.875 14.961)" fill="#fff" stroke="#91b3bc" stroke-linecap="round" stroke-width="1">
    <rect width="1.25" height="8.25" rx="0.625" stroke="none"/>
    <rect x="0.5" y="0.5" width="0.25" height="7.25" rx="0.125" fill="none"/>
  </g>
  <g id="Path_13" data-name="Path 13" transform="translate(20 14.711) rotate(90)" fill="#fff" stroke-linecap="round">
    <path d="M 0.625 4.5 C 0.5560700297355652 4.5 0.5 4.443930149078369 0.5 4.375 L 0.5 0.625 C 0.5 0.5560700297355652 0.5560700297355652 0.5 0.625 0.5 C 0.6939299702644348 0.5 0.75 0.5560700297355652 0.75 0.625 L 0.75 4.375 C 0.75 4.443930149078369 0.6939299702644348 4.5 0.625 4.5 Z" stroke="none"/>
    <path d="M 0.625 0 C 0.9701800346374512 0 1.25 0.2798199653625488 1.25 0.625 L 1.25 4.375 C 1.25 4.720180034637451 0.9701800346374512 5 0.625 5 C 0.2798200249671936 5 0 4.720180034637451 0 4.375 L 0 0.625 C 0 0.2798199653625488 0.2798200249671936 0 0.625 0 Z" stroke="none" fill="#91b3bc"/>
  </g>
</svg>
