<svg xmlns="http://www.w3.org/2000/svg" width="104" height="94" viewBox="0 0 104 94">
  <g id="portfolio" transform="translate(-822 -577)">
    <path id="portfolio-2" data-name="portfolio" d="M89.13,28.69H67.76V19.07a4,4,0,0,0-4-4H36.26a4,4,0,0,0-4,4v9.62H10.87A5.89,5.89,0,0,0,5,34.56V89.1A5.89,5.89,0,0,0,10.87,95H89.13A5.89,5.89,0,0,0,95,89.1V34.56a5.89,5.89,0,0,0-5.87-5.87ZM35,19.07a1.23,1.23,0,0,1,1.22-1.22h27.5a1.23,1.23,0,0,1,1.22,1.22v9.62H35ZM10.87,31.5H89.13a3.06,3.06,0,0,1,3.05,3.05v19H59.84V51.48A2.81,2.81,0,0,0,57,48.67H43a2.81,2.81,0,0,0-2.81,2.81v2.11H7.81v-19a3.06,3.06,0,0,1,3.06-3.09ZM57,51.48v7H43v-7ZM89.1,92.15H10.87A3.06,3.06,0,0,1,7.81,89.1V56.41H40.16v2.11A2.81,2.81,0,0,0,43,61.33H57a2.81,2.81,0,0,0,2.81-2.81V56.41H92.19V89.1a3.06,3.06,0,0,1-3.06,3.06Z" transform="translate(824 568.93)" fill="#f28c28"/>
    <g id="Rectangle_7" data-name="Rectangle 7" transform="translate(822 577)" fill="none" stroke="#707070" stroke-width="1">
      <rect width="104" height="94" stroke="none"/>
      <rect x="0.5" y="0.5" width="103" height="93" fill="none"/>
    </g>
  </g>
</svg>
