<svg xmlns="http://www.w3.org/2000/svg" width="30" height="30" viewBox="0 0 30 30">
  <g id="home" transform="translate(1 3.166)">
    <g id="Group_30" data-name="Group 30" transform="translate(-1 -3.166)">
      <rect id="canvas_background" width="30" height="30" fill="none"/>
    </g>
    <path id="home-2" data-name="home" d="M20.9,11.7a1.477,1.477,0,0,1-1.393.968H19V20a.667.667,0,0,1-.667.667h-4V16a3.333,3.333,0,1,0-6.666,0v4.666h-4A.667.667,0,0,1,3,20V12.667H2.49a1.492,1.492,0,0,1-.98-2.614L9.3,2.68a2.479,2.479,0,0,1,3.408,0l7.8,7.39A1.469,1.469,0,0,1,20.9,11.7Z" transform="translate(3.001 0.5)" fill="#fff"/>
  </g>
</svg>
