<svg width="24" height="24" xmlns="http://www.w3.org/2000/svg">

 <g>
  <title>background</title>
  <rect fill="none" id="canvas_background" height="402" width="582" y="-1" x="-1"/>
 </g>
 <g>
  <title>Layer 1</title>
  <path fill="#ffffff" id="svg_2" d="m8,19l-3,0l0,-10l3,0l0,10zm11,0l-3,0l0,-5.342c0,-1.392 -0.496,-2.085 -1.479,-2.085c-0.779,0 -1.273,0.388 -1.521,1.165c0,1.262 0,6.262 0,6.262l-3,0c0,0 0.04,-9 0,-10l2.368,0l0.183,2l0.062,0c0.615,-1 1.598,-1.678 2.946,-1.678c1.025,0 1.854,0.285 2.487,1.001c0.637,0.717 0.954,1.679 0.954,3.03l0,5.647z"/>
  <ellipse fill="#ffffff" id="svg_4" ry="1.5" rx="1.55" cy="6.5" cx="6.5"/>
 </g>
</svg>