<svg width="56.699999999999996" height="56.699999999999996" xmlns="http://www.w3.org/2000/svg">

 <g>
  <title>background</title>
  <rect fill="none" id="canvas_background" height="402" width="582" y="-1" x="-1"/>
 </g>
 <g>
  <title>Layer 1</title>
  <path fill="#ffffff" id="svg_1" d="m42.4,17.7c-5.3,0 -9.3,3.5 -10.9,9c-2.5,-3.9 -4.5,-8.3 -5.6,-12.1l-5.6,0l0,14.7c0,2.9 -2.4,5.3 -5.3,5.3c-2.9,0 -5.3,-2.4 -5.3,-5.3l0,-14.6l-5.4,0l0,14.7c0,6.1 4.9,11 10.9,11c6,0 10.9,-4.9 10.9,-11l0,-2.5c1.1,2.2 2.5,4.6 4,6.7l-3.5,16.3l5.7,0l2.4,-11.9c2.2,1.4 4.7,2.2 7.7,2.2c6.1,0 11.1,-5 11.1,-11.4c0,-6.1 -5,-11.1 -11.1,-11.1zm0,16.9c-2.2,0 -4.5,-1 -6.3,-2.5l0.6,-2.2l0,-0.1c0.4,-2.4 1.7,-6.4 5.8,-6.4c3.1,0 5.6,2.5 5.6,5.6c-0.1,3.1 -2.8,5.6 -5.7,5.6z"/>
 </g>
</svg>